<?xml version="1.0" encoding="UTF-8" ?>
<svg version="1.1" width="128" height="32" xmlns="http://www.w3.org/2000/svg" shape-rendering="crispEdges">
<rect x="44" y="8" width="1" height="1" fill="#ED8099" />
<rect x="46" y="8" width="1" height="1" fill="#ED8099" />
<rect x="43" y="9" width="1" height="1" fill="#ED8099" />
<rect x="44" y="9" width="1" height="1" fill="#ED8099" />
<rect x="45" y="9" width="1" height="1" fill="#ED8099" />
<rect x="46" y="9" width="1" height="1" fill="#ED8099" />
<rect x="47" y="9" width="1" height="1" fill="#ED8099" />
<rect x="44" y="10" width="1" height="1" fill="#ED8099" />
<rect x="45" y="10" width="1" height="1" fill="#ED8099" />
<rect x="46" y="10" width="1" height="1" fill="#ED8099" />
<rect x="45" y="11" width="1" height="1" fill="#ED8099" />
<rect x="10" y="13" width="1" height="1" fill="#2E222F" />
<rect x="15" y="13" width="1" height="1" fill="#2E222F" />
<rect x="42" y="13" width="1" height="1" fill="#2E222F" />
<rect x="47" y="13" width="1" height="1" fill="#2E222F" />
<rect x="75" y="13" width="1" height="1" fill="#2E222F" />
<rect x="80" y="13" width="1" height="1" fill="#2E222F" />
<rect x="106" y="13" width="1" height="1" fill="#2E222F" />
<rect x="111" y="13" width="1" height="1" fill="#2E222F" />
<rect x="9" y="14" width="1" height="1" fill="#2E222F" />
<rect x="10" y="14" width="1" height="1" fill="#FFFFFF" />
<rect x="11" y="14" width="1" height="1" fill="#2E222F" />
<rect x="14" y="14" width="1" height="1" fill="#2E222F" />
<rect x="15" y="14" width="1" height="1" fill="#FFFFFF" />
<rect x="16" y="14" width="1" height="1" fill="#2E222F" />
<rect x="41" y="14" width="1" height="1" fill="#2E222F" />
<rect x="42" y="14" width="1" height="1" fill="#FFFFFF" />
<rect x="43" y="14" width="1" height="1" fill="#2E222F" />
<rect x="46" y="14" width="1" height="1" fill="#2E222F" />
<rect x="47" y="14" width="1" height="1" fill="#FFFFFF" />
<rect x="48" y="14" width="1" height="1" fill="#2E222F" />
<rect x="73" y="14" width="1" height="1" fill="#2E222F" />
<rect x="74" y="14" width="1" height="1" fill="#FFFFFF" />
<rect x="75" y="14" width="1" height="1" fill="#2E222F" />
<rect x="78" y="14" width="1" height="1" fill="#2E222F" />
<rect x="79" y="14" width="1" height="1" fill="#FFFFFF" />
<rect x="80" y="14" width="1" height="1" fill="#2E222F" />
<rect x="105" y="14" width="1" height="1" fill="#2E222F" />
<rect x="106" y="14" width="1" height="1" fill="#FFFFFF" />
<rect x="107" y="14" width="1" height="1" fill="#2E222F" />
<rect x="110" y="14" width="1" height="1" fill="#2E222F" />
<rect x="111" y="14" width="1" height="1" fill="#FFFFFF" />
<rect x="112" y="14" width="1" height="1" fill="#2E222F" />
<rect x="8" y="15" width="1" height="1" fill="#2E222F" />
<rect x="9" y="15" width="1" height="1" fill="#FFFFFF" />
<rect x="10" y="15" width="1" height="1" fill="#FFFFFF" />
<rect x="11" y="15" width="1" height="1" fill="#FFFFFF" />
<rect x="12" y="15" width="1" height="1" fill="#2E222F" />
<rect x="13" y="15" width="1" height="1" fill="#2E222F" />
<rect x="14" y="15" width="1" height="1" fill="#FFFFFF" />
<rect x="15" y="15" width="1" height="1" fill="#FFFFFF" />
<rect x="16" y="15" width="1" height="1" fill="#FFFFFF" />
<rect x="17" y="15" width="1" height="1" fill="#2E222F" />
<rect x="18" y="15" width="1" height="1" fill="#2E222F" />
<rect x="19" y="15" width="1" height="1" fill="#2E222F" />
<rect x="20" y="15" width="1" height="1" fill="#2E222F" />
<rect x="21" y="15" width="1" height="1" fill="#2E222F" />
<rect x="22" y="15" width="1" height="1" fill="#2E222F" />
<rect x="26" y="15" width="1" height="1" fill="#2E222F" />
<rect x="40" y="15" width="1" height="1" fill="#2E222F" />
<rect x="41" y="15" width="1" height="1" fill="#FFFFFF" />
<rect x="42" y="15" width="1" height="1" fill="#FFFFFF" />
<rect x="43" y="15" width="1" height="1" fill="#FFFFFF" />
<rect x="44" y="15" width="1" height="1" fill="#2E222F" />
<rect x="45" y="15" width="1" height="1" fill="#2E222F" />
<rect x="46" y="15" width="1" height="1" fill="#FFFFFF" />
<rect x="47" y="15" width="1" height="1" fill="#FFFFFF" />
<rect x="48" y="15" width="1" height="1" fill="#FFFFFF" />
<rect x="49" y="15" width="1" height="1" fill="#2E222F" />
<rect x="50" y="15" width="1" height="1" fill="#2E222F" />
<rect x="51" y="15" width="1" height="1" fill="#2E222F" />
<rect x="52" y="15" width="1" height="1" fill="#2E222F" />
<rect x="53" y="15" width="1" height="1" fill="#2E222F" />
<rect x="54" y="15" width="1" height="1" fill="#2E222F" />
<rect x="58" y="15" width="1" height="1" fill="#2E222F" />
<rect x="72" y="15" width="1" height="1" fill="#2E222F" />
<rect x="73" y="15" width="1" height="1" fill="#FFFFFF" />
<rect x="74" y="15" width="1" height="1" fill="#FFFFFF" />
<rect x="75" y="15" width="1" height="1" fill="#FFFFFF" />
<rect x="76" y="15" width="1" height="1" fill="#2E222F" />
<rect x="77" y="15" width="1" height="1" fill="#2E222F" />
<rect x="78" y="15" width="1" height="1" fill="#FFFFFF" />
<rect x="79" y="15" width="1" height="1" fill="#FFFFFF" />
<rect x="80" y="15" width="1" height="1" fill="#FFFFFF" />
<rect x="81" y="15" width="1" height="1" fill="#2E222F" />
<rect x="82" y="15" width="1" height="1" fill="#2E222F" />
<rect x="83" y="15" width="1" height="1" fill="#2E222F" />
<rect x="84" y="15" width="1" height="1" fill="#2E222F" />
<rect x="85" y="15" width="1" height="1" fill="#2E222F" />
<rect x="86" y="15" width="1" height="1" fill="#2E222F" />
<rect x="104" y="15" width="1" height="1" fill="#2E222F" />
<rect x="105" y="15" width="1" height="1" fill="#FFFFFF" />
<rect x="106" y="15" width="1" height="1" fill="#FFFFFF" />
<rect x="107" y="15" width="1" height="1" fill="#FFFFFF" />
<rect x="108" y="15" width="1" height="1" fill="#2E222F" />
<rect x="109" y="15" width="1" height="1" fill="#2E222F" />
<rect x="110" y="15" width="1" height="1" fill="#FFFFFF" />
<rect x="111" y="15" width="1" height="1" fill="#FFFFFF" />
<rect x="112" y="15" width="1" height="1" fill="#FFFFFF" />
<rect x="113" y="15" width="1" height="1" fill="#2E222F" />
<rect x="114" y="15" width="1" height="1" fill="#2E222F" />
<rect x="115" y="15" width="1" height="1" fill="#2E222F" />
<rect x="116" y="15" width="1" height="1" fill="#2E222F" />
<rect x="117" y="15" width="1" height="1" fill="#2E222F" />
<rect x="118" y="15" width="1" height="1" fill="#2E222F" />
<rect x="122" y="15" width="1" height="1" fill="#2E222F" />
<rect x="8" y="16" width="1" height="1" fill="#2E222F" />
<rect x="9" y="16" width="1" height="1" fill="#FFFFFF" />
<rect x="10" y="16" width="1" height="1" fill="#FFFFFF" />
<rect x="11" y="16" width="1" height="1" fill="#FFFFFF" />
<rect x="12" y="16" width="1" height="1" fill="#FFFFFF" />
<rect x="13" y="16" width="1" height="1" fill="#FFFFFF" />
<rect x="14" y="16" width="1" height="1" fill="#FFFFFF" />
<rect x="15" y="16" width="1" height="1" fill="#FFFFFF" />
<rect x="16" y="16" width="1" height="1" fill="#FFFFFF" />
<rect x="17" y="16" width="1" height="1" fill="#FFFFFF" />
<rect x="18" y="16" width="1" height="1" fill="#FFFFFF" />
<rect x="19" y="16" width="1" height="1" fill="#FFFFFF" />
<rect x="20" y="16" width="1" height="1" fill="#FFFFFF" />
<rect x="21" y="16" width="1" height="1" fill="#FFFFFF" />
<rect x="22" y="16" width="1" height="1" fill="#E7ECEE" />
<rect x="23" y="16" width="1" height="1" fill="#2E222F" />
<rect x="25" y="16" width="1" height="1" fill="#2E222F" />
<rect x="26" y="16" width="1" height="1" fill="#2E222F" />
<rect x="40" y="16" width="1" height="1" fill="#2E222F" />
<rect x="41" y="16" width="1" height="1" fill="#FFFFFF" />
<rect x="42" y="16" width="1" height="1" fill="#FFFFFF" />
<rect x="43" y="16" width="1" height="1" fill="#FFFFFF" />
<rect x="44" y="16" width="1" height="1" fill="#FFFFFF" />
<rect x="45" y="16" width="1" height="1" fill="#FFFFFF" />
<rect x="46" y="16" width="1" height="1" fill="#FFFFFF" />
<rect x="47" y="16" width="1" height="1" fill="#FFFFFF" />
<rect x="48" y="16" width="1" height="1" fill="#FFFFFF" />
<rect x="49" y="16" width="1" height="1" fill="#FFFFFF" />
<rect x="50" y="16" width="1" height="1" fill="#FFFFFF" />
<rect x="51" y="16" width="1" height="1" fill="#FFFFFF" />
<rect x="52" y="16" width="1" height="1" fill="#FFFFFF" />
<rect x="53" y="16" width="1" height="1" fill="#FFFFFF" />
<rect x="54" y="16" width="1" height="1" fill="#E7ECEE" />
<rect x="55" y="16" width="1" height="1" fill="#2E222F" />
<rect x="57" y="16" width="1" height="1" fill="#2E222F" />
<rect x="58" y="16" width="1" height="1" fill="#2E222F" />
<rect x="72" y="16" width="1" height="1" fill="#2E222F" />
<rect x="73" y="16" width="1" height="1" fill="#FFFFFF" />
<rect x="74" y="16" width="1" height="1" fill="#FFFFFF" />
<rect x="75" y="16" width="1" height="1" fill="#FFFFFF" />
<rect x="76" y="16" width="1" height="1" fill="#FFFFFF" />
<rect x="77" y="16" width="1" height="1" fill="#FFFFFF" />
<rect x="78" y="16" width="1" height="1" fill="#FFFFFF" />
<rect x="79" y="16" width="1" height="1" fill="#FFFFFF" />
<rect x="80" y="16" width="1" height="1" fill="#FFFFFF" />
<rect x="81" y="16" width="1" height="1" fill="#FFFFFF" />
<rect x="82" y="16" width="1" height="1" fill="#FFFFFF" />
<rect x="83" y="16" width="1" height="1" fill="#FFFFFF" />
<rect x="84" y="16" width="1" height="1" fill="#FFFFFF" />
<rect x="85" y="16" width="1" height="1" fill="#FFFFFF" />
<rect x="86" y="16" width="1" height="1" fill="#E7ECEE" />
<rect x="87" y="16" width="1" height="1" fill="#2E222F" />
<rect x="89" y="16" width="1" height="1" fill="#2E222F" />
<rect x="90" y="16" width="1" height="1" fill="#2E222F" />
<rect x="91" y="16" width="1" height="1" fill="#2E222F" />
<rect x="104" y="16" width="1" height="1" fill="#2E222F" />
<rect x="105" y="16" width="1" height="1" fill="#FFFFFF" />
<rect x="106" y="16" width="1" height="1" fill="#FFFFFF" />
<rect x="107" y="16" width="1" height="1" fill="#FFFFFF" />
<rect x="108" y="16" width="1" height="1" fill="#FFFFFF" />
<rect x="109" y="16" width="1" height="1" fill="#FFFFFF" />
<rect x="110" y="16" width="1" height="1" fill="#FFFFFF" />
<rect x="111" y="16" width="1" height="1" fill="#FFFFFF" />
<rect x="112" y="16" width="1" height="1" fill="#FFFFFF" />
<rect x="113" y="16" width="1" height="1" fill="#FFFFFF" />
<rect x="114" y="16" width="1" height="1" fill="#FFFFFF" />
<rect x="115" y="16" width="1" height="1" fill="#FFFFFF" />
<rect x="116" y="16" width="1" height="1" fill="#FFFFFF" />
<rect x="117" y="16" width="1" height="1" fill="#FFFFFF" />
<rect x="118" y="16" width="1" height="1" fill="#FFFFFF" />
<rect x="119" y="16" width="1" height="1" fill="#2E222F" />
<rect x="121" y="16" width="1" height="1" fill="#2E222F" />
<rect x="122" y="16" width="1" height="1" fill="#2E222F" />
<rect x="7" y="17" width="1" height="1" fill="#2E222F" />
<rect x="8" y="17" width="1" height="1" fill="#FFFFFF" />
<rect x="9" y="17" width="1" height="1" fill="#FFFFFF" />
<rect x="10" y="17" width="1" height="1" fill="#FFFFFF" />
<rect x="11" y="17" width="1" height="1" fill="#FFFFFF" />
<rect x="12" y="17" width="1" height="1" fill="#FFFFFF" />
<rect x="13" y="17" width="1" height="1" fill="#FFFFFF" />
<rect x="14" y="17" width="1" height="1" fill="#FFFFFF" />
<rect x="15" y="17" width="1" height="1" fill="#FFFFFF" />
<rect x="16" y="17" width="1" height="1" fill="#FFFFFF" />
<rect x="17" y="17" width="1" height="1" fill="#FFFFFF" />
<rect x="18" y="17" width="1" height="1" fill="#FFFFFF" />
<rect x="19" y="17" width="1" height="1" fill="#FFFFFF" />
<rect x="20" y="17" width="1" height="1" fill="#FFFFFF" />
<rect x="21" y="17" width="1" height="1" fill="#FFFFFF" />
<rect x="22" y="17" width="1" height="1" fill="#FFFFFF" />
<rect x="23" y="17" width="1" height="1" fill="#E7ECEE" />
<rect x="24" y="17" width="1" height="1" fill="#2E222F" />
<rect x="25" y="17" width="1" height="1" fill="#2E222F" />
<rect x="39" y="17" width="1" height="1" fill="#2E222F" />
<rect x="40" y="17" width="1" height="1" fill="#FFFFFF" />
<rect x="41" y="17" width="1" height="1" fill="#FFFFFF" />
<rect x="42" y="17" width="1" height="1" fill="#FFFFFF" />
<rect x="43" y="17" width="1" height="1" fill="#FFFFFF" />
<rect x="44" y="17" width="1" height="1" fill="#FFFFFF" />
<rect x="45" y="17" width="1" height="1" fill="#FFFFFF" />
<rect x="46" y="17" width="1" height="1" fill="#FFFFFF" />
<rect x="47" y="17" width="1" height="1" fill="#FFFFFF" />
<rect x="48" y="17" width="1" height="1" fill="#FFFFFF" />
<rect x="49" y="17" width="1" height="1" fill="#FFFFFF" />
<rect x="50" y="17" width="1" height="1" fill="#FFFFFF" />
<rect x="51" y="17" width="1" height="1" fill="#FFFFFF" />
<rect x="52" y="17" width="1" height="1" fill="#FFFFFF" />
<rect x="53" y="17" width="1" height="1" fill="#FFFFFF" />
<rect x="54" y="17" width="1" height="1" fill="#FFFFFF" />
<rect x="55" y="17" width="1" height="1" fill="#E7ECEE" />
<rect x="56" y="17" width="1" height="1" fill="#2E222F" />
<rect x="57" y="17" width="1" height="1" fill="#2E222F" />
<rect x="71" y="17" width="1" height="1" fill="#2E222F" />
<rect x="72" y="17" width="1" height="1" fill="#FFFFFF" />
<rect x="73" y="17" width="1" height="1" fill="#FFFFFF" />
<rect x="74" y="17" width="1" height="1" fill="#FFFFFF" />
<rect x="75" y="17" width="1" height="1" fill="#FFFFFF" />
<rect x="76" y="17" width="1" height="1" fill="#FFFFFF" />
<rect x="77" y="17" width="1" height="1" fill="#FFFFFF" />
<rect x="78" y="17" width="1" height="1" fill="#FFFFFF" />
<rect x="79" y="17" width="1" height="1" fill="#FFFFFF" />
<rect x="80" y="17" width="1" height="1" fill="#FFFFFF" />
<rect x="81" y="17" width="1" height="1" fill="#FFFFFF" />
<rect x="82" y="17" width="1" height="1" fill="#FFFFFF" />
<rect x="83" y="17" width="1" height="1" fill="#FFFFFF" />
<rect x="84" y="17" width="1" height="1" fill="#FFFFFF" />
<rect x="85" y="17" width="1" height="1" fill="#FFFFFF" />
<rect x="86" y="17" width="1" height="1" fill="#FFFFFF" />
<rect x="87" y="17" width="1" height="1" fill="#E7ECEE" />
<rect x="88" y="17" width="1" height="1" fill="#2E222F" />
<rect x="89" y="17" width="1" height="1" fill="#2E222F" />
<rect x="103" y="17" width="1" height="1" fill="#2E222F" />
<rect x="104" y="17" width="1" height="1" fill="#FFFFFF" />
<rect x="105" y="17" width="1" height="1" fill="#FFFFFF" />
<rect x="106" y="17" width="1" height="1" fill="#FFFFFF" />
<rect x="107" y="17" width="1" height="1" fill="#FFFFFF" />
<rect x="108" y="17" width="1" height="1" fill="#FFFFFF" />
<rect x="109" y="17" width="1" height="1" fill="#FFFFFF" />
<rect x="110" y="17" width="1" height="1" fill="#FFFFFF" />
<rect x="111" y="17" width="1" height="1" fill="#FFFFFF" />
<rect x="112" y="17" width="1" height="1" fill="#FFFFFF" />
<rect x="113" y="17" width="1" height="1" fill="#FFFFFF" />
<rect x="114" y="17" width="1" height="1" fill="#FFFFFF" />
<rect x="115" y="17" width="1" height="1" fill="#FFFFFF" />
<rect x="116" y="17" width="1" height="1" fill="#FFFFFF" />
<rect x="117" y="17" width="1" height="1" fill="#FFFFFF" />
<rect x="118" y="17" width="1" height="1" fill="#FFFFFF" />
<rect x="119" y="17" width="1" height="1" fill="#E7ECEE" />
<rect x="120" y="17" width="1" height="1" fill="#2E222F" />
<rect x="121" y="17" width="1" height="1" fill="#2E222F" />
<rect x="7" y="18" width="1" height="1" fill="#2E222F" />
<rect x="8" y="18" width="1" height="1" fill="#FFFFFF" />
<rect x="9" y="18" width="1" height="1" fill="#2E222F" />
<rect x="10" y="18" width="1" height="1" fill="#8FD3FF" />
<rect x="11" y="18" width="1" height="1" fill="#FFFFFF" />
<rect x="12" y="18" width="1" height="1" fill="#2E222F" />
<rect x="13" y="18" width="1" height="1" fill="#8FD3FF" />
<rect x="14" y="18" width="1" height="1" fill="#FFFFFF" />
<rect x="15" y="18" width="1" height="1" fill="#FFFFFF" />
<rect x="16" y="18" width="1" height="1" fill="#FFFFFF" />
<rect x="17" y="18" width="1" height="1" fill="#FFFFFF" />
<rect x="18" y="18" width="1" height="1" fill="#FFFFFF" />
<rect x="19" y="18" width="1" height="1" fill="#FFFFFF" />
<rect x="20" y="18" width="1" height="1" fill="#FFFFFF" />
<rect x="21" y="18" width="1" height="1" fill="#FFFFFF" />
<rect x="22" y="18" width="1" height="1" fill="#FFFFFF" />
<rect x="23" y="18" width="1" height="1" fill="#E7ECEE" />
<rect x="24" y="18" width="1" height="1" fill="#2E222F" />
<rect x="39" y="18" width="1" height="1" fill="#2E222F" />
<rect x="40" y="18" width="1" height="1" fill="#FFFFFF" />
<rect x="41" y="18" width="1" height="1" fill="#8FD3FF" />
<rect x="42" y="18" width="1" height="1" fill="#2E222F" />
<rect x="43" y="18" width="1" height="1" fill="#FFFFFF" />
<rect x="44" y="18" width="1" height="1" fill="#8FD3FF" />
<rect x="45" y="18" width="1" height="1" fill="#2E222F" />
<rect x="46" y="18" width="1" height="1" fill="#FFFFFF" />
<rect x="47" y="18" width="1" height="1" fill="#FFFFFF" />
<rect x="48" y="18" width="1" height="1" fill="#FFFFFF" />
<rect x="49" y="18" width="1" height="1" fill="#FFFFFF" />
<rect x="50" y="18" width="1" height="1" fill="#FFFFFF" />
<rect x="51" y="18" width="1" height="1" fill="#FFFFFF" />
<rect x="52" y="18" width="1" height="1" fill="#FFFFFF" />
<rect x="53" y="18" width="1" height="1" fill="#FFFFFF" />
<rect x="54" y="18" width="1" height="1" fill="#FFFFFF" />
<rect x="55" y="18" width="1" height="1" fill="#E7ECEE" />
<rect x="56" y="18" width="1" height="1" fill="#2E222F" />
<rect x="71" y="18" width="1" height="1" fill="#2E222F" />
<rect x="72" y="18" width="1" height="1" fill="#FFFFFF" />
<rect x="73" y="18" width="1" height="1" fill="#2E222F" />
<rect x="74" y="18" width="1" height="1" fill="#8FD3FF" />
<rect x="75" y="18" width="1" height="1" fill="#FFFFFF" />
<rect x="76" y="18" width="1" height="1" fill="#2E222F" />
<rect x="77" y="18" width="1" height="1" fill="#8FD3FF" />
<rect x="78" y="18" width="1" height="1" fill="#FFFFFF" />
<rect x="79" y="18" width="1" height="1" fill="#FFFFFF" />
<rect x="80" y="18" width="1" height="1" fill="#FFFFFF" />
<rect x="81" y="18" width="1" height="1" fill="#FFFFFF" />
<rect x="82" y="18" width="1" height="1" fill="#FFFFFF" />
<rect x="83" y="18" width="1" height="1" fill="#FFFFFF" />
<rect x="84" y="18" width="1" height="1" fill="#FFFFFF" />
<rect x="85" y="18" width="1" height="1" fill="#FFFFFF" />
<rect x="86" y="18" width="1" height="1" fill="#FFFFFF" />
<rect x="87" y="18" width="1" height="1" fill="#E7ECEE" />
<rect x="88" y="18" width="1" height="1" fill="#2E222F" />
<rect x="103" y="18" width="1" height="1" fill="#2E222F" />
<rect x="104" y="18" width="1" height="1" fill="#FFFFFF" />
<rect x="105" y="18" width="1" height="1" fill="#2E222F" />
<rect x="106" y="18" width="1" height="1" fill="#8FD3FF" />
<rect x="107" y="18" width="1" height="1" fill="#FFFFFF" />
<rect x="108" y="18" width="1" height="1" fill="#2E222F" />
<rect x="109" y="18" width="1" height="1" fill="#8FD3FF" />
<rect x="110" y="18" width="1" height="1" fill="#FFFFFF" />
<rect x="111" y="18" width="1" height="1" fill="#FFFFFF" />
<rect x="112" y="18" width="1" height="1" fill="#FFFFFF" />
<rect x="113" y="18" width="1" height="1" fill="#FFFFFF" />
<rect x="114" y="18" width="1" height="1" fill="#FFFFFF" />
<rect x="115" y="18" width="1" height="1" fill="#FFFFFF" />
<rect x="116" y="18" width="1" height="1" fill="#FFFFFF" />
<rect x="117" y="18" width="1" height="1" fill="#FFFFFF" />
<rect x="118" y="18" width="1" height="1" fill="#FFFFFF" />
<rect x="119" y="18" width="1" height="1" fill="#E7ECEE" />
<rect x="120" y="18" width="1" height="1" fill="#2E222F" />
<rect x="7" y="19" width="1" height="1" fill="#2E222F" />
<rect x="8" y="19" width="1" height="1" fill="#FFFFFF" />
<rect x="9" y="19" width="1" height="1" fill="#2E222F" />
<rect x="10" y="19" width="1" height="1" fill="#8FD3FF" />
<rect x="11" y="19" width="1" height="1" fill="#FFFFFF" />
<rect x="12" y="19" width="1" height="1" fill="#2E222F" />
<rect x="13" y="19" width="1" height="1" fill="#8FD3FF" />
<rect x="14" y="19" width="1" height="1" fill="#FFFFFF" />
<rect x="15" y="19" width="1" height="1" fill="#FFFFFF" />
<rect x="16" y="19" width="1" height="1" fill="#FFFFFF" />
<rect x="17" y="19" width="1" height="1" fill="#FFFFFF" />
<rect x="18" y="19" width="1" height="1" fill="#FFFFFF" />
<rect x="19" y="19" width="1" height="1" fill="#FFFFFF" />
<rect x="20" y="19" width="1" height="1" fill="#FFFFFF" />
<rect x="21" y="19" width="1" height="1" fill="#FFFFFF" />
<rect x="22" y="19" width="1" height="1" fill="#FFFFFF" />
<rect x="23" y="19" width="1" height="1" fill="#E7ECEE" />
<rect x="24" y="19" width="1" height="1" fill="#2E222F" />
<rect x="39" y="19" width="1" height="1" fill="#2E222F" />
<rect x="40" y="19" width="1" height="1" fill="#FFFFFF" />
<rect x="41" y="19" width="1" height="1" fill="#8FD3FF" />
<rect x="42" y="19" width="1" height="1" fill="#2E222F" />
<rect x="43" y="19" width="1" height="1" fill="#FFFFFF" />
<rect x="44" y="19" width="1" height="1" fill="#8FD3FF" />
<rect x="45" y="19" width="1" height="1" fill="#2E222F" />
<rect x="46" y="19" width="1" height="1" fill="#FFFFFF" />
<rect x="47" y="19" width="1" height="1" fill="#FFFFFF" />
<rect x="48" y="19" width="1" height="1" fill="#FFFFFF" />
<rect x="49" y="19" width="1" height="1" fill="#FFFFFF" />
<rect x="50" y="19" width="1" height="1" fill="#FFFFFF" />
<rect x="51" y="19" width="1" height="1" fill="#FFFFFF" />
<rect x="52" y="19" width="1" height="1" fill="#FFFFFF" />
<rect x="53" y="19" width="1" height="1" fill="#FFFFFF" />
<rect x="54" y="19" width="1" height="1" fill="#FFFFFF" />
<rect x="55" y="19" width="1" height="1" fill="#E7ECEE" />
<rect x="56" y="19" width="1" height="1" fill="#2E222F" />
<rect x="71" y="19" width="1" height="1" fill="#2E222F" />
<rect x="72" y="19" width="1" height="1" fill="#FFFFFF" />
<rect x="73" y="19" width="1" height="1" fill="#2E222F" />
<rect x="74" y="19" width="1" height="1" fill="#8FD3FF" />
<rect x="75" y="19" width="1" height="1" fill="#FFFFFF" />
<rect x="76" y="19" width="1" height="1" fill="#2E222F" />
<rect x="77" y="19" width="1" height="1" fill="#8FD3FF" />
<rect x="78" y="19" width="1" height="1" fill="#FFFFFF" />
<rect x="79" y="19" width="1" height="1" fill="#FFFFFF" />
<rect x="80" y="19" width="1" height="1" fill="#FFFFFF" />
<rect x="81" y="19" width="1" height="1" fill="#FFFFFF" />
<rect x="82" y="19" width="1" height="1" fill="#FFFFFF" />
<rect x="83" y="19" width="1" height="1" fill="#FFFFFF" />
<rect x="84" y="19" width="1" height="1" fill="#FFFFFF" />
<rect x="85" y="19" width="1" height="1" fill="#FFFFFF" />
<rect x="86" y="19" width="1" height="1" fill="#FFFFFF" />
<rect x="87" y="19" width="1" height="1" fill="#E7ECEE" />
<rect x="88" y="19" width="1" height="1" fill="#2E222F" />
<rect x="103" y="19" width="1" height="1" fill="#2E222F" />
<rect x="104" y="19" width="1" height="1" fill="#FFFFFF" />
<rect x="105" y="19" width="1" height="1" fill="#2E222F" />
<rect x="106" y="19" width="1" height="1" fill="#8FD3FF" />
<rect x="107" y="19" width="1" height="1" fill="#FFFFFF" />
<rect x="108" y="19" width="1" height="1" fill="#2E222F" />
<rect x="109" y="19" width="1" height="1" fill="#8FD3FF" />
<rect x="110" y="19" width="1" height="1" fill="#FFFFFF" />
<rect x="111" y="19" width="1" height="1" fill="#FFFFFF" />
<rect x="112" y="19" width="1" height="1" fill="#FFFFFF" />
<rect x="113" y="19" width="1" height="1" fill="#FFFFFF" />
<rect x="114" y="19" width="1" height="1" fill="#FFFFFF" />
<rect x="115" y="19" width="1" height="1" fill="#FFFFFF" />
<rect x="116" y="19" width="1" height="1" fill="#FFFFFF" />
<rect x="117" y="19" width="1" height="1" fill="#FFFFFF" />
<rect x="118" y="19" width="1" height="1" fill="#FFFFFF" />
<rect x="119" y="19" width="1" height="1" fill="#E7ECEE" />
<rect x="120" y="19" width="1" height="1" fill="#2E222F" />
<rect x="7" y="20" width="1" height="1" fill="#2E222F" />
<rect x="8" y="20" width="1" height="1" fill="#FFFFFF" />
<rect x="9" y="20" width="1" height="1" fill="#FFFFFF" />
<rect x="10" y="20" width="1" height="1" fill="#FFFFFF" />
<rect x="11" y="20" width="1" height="1" fill="#FFFFFF" />
<rect x="12" y="20" width="1" height="1" fill="#FFFFFF" />
<rect x="13" y="20" width="1" height="1" fill="#FFFFFF" />
<rect x="14" y="20" width="1" height="1" fill="#FFFFFF" />
<rect x="15" y="20" width="1" height="1" fill="#FFFFFF" />
<rect x="16" y="20" width="1" height="1" fill="#FFFFFF" />
<rect x="17" y="20" width="1" height="1" fill="#FFFFFF" />
<rect x="18" y="20" width="1" height="1" fill="#FFFFFF" />
<rect x="19" y="20" width="1" height="1" fill="#FFFFFF" />
<rect x="20" y="20" width="1" height="1" fill="#FFFFFF" />
<rect x="21" y="20" width="1" height="1" fill="#FFFFFF" />
<rect x="22" y="20" width="1" height="1" fill="#FFFFFF" />
<rect x="23" y="20" width="1" height="1" fill="#E7ECEE" />
<rect x="24" y="20" width="1" height="1" fill="#2E222F" />
<rect x="39" y="20" width="1" height="1" fill="#2E222F" />
<rect x="40" y="20" width="1" height="1" fill="#FEC9D0" />
<rect x="41" y="20" width="1" height="1" fill="#FFFFFF" />
<rect x="42" y="20" width="1" height="1" fill="#FFFFFF" />
<rect x="43" y="20" width="1" height="1" fill="#FFFFFF" />
<rect x="44" y="20" width="1" height="1" fill="#FFFFFF" />
<rect x="45" y="20" width="1" height="1" fill="#FFFFFF" />
<rect x="46" y="20" width="1" height="1" fill="#FEC9D0" />
<rect x="47" y="20" width="1" height="1" fill="#FFFFFF" />
<rect x="48" y="20" width="1" height="1" fill="#FFFFFF" />
<rect x="49" y="20" width="1" height="1" fill="#FFFFFF" />
<rect x="50" y="20" width="1" height="1" fill="#FFFFFF" />
<rect x="51" y="20" width="1" height="1" fill="#FFFFFF" />
<rect x="52" y="20" width="1" height="1" fill="#FFFFFF" />
<rect x="53" y="20" width="1" height="1" fill="#FFFFFF" />
<rect x="54" y="20" width="1" height="1" fill="#FFFFFF" />
<rect x="55" y="20" width="1" height="1" fill="#E7ECEE" />
<rect x="56" y="20" width="1" height="1" fill="#2E222F" />
<rect x="71" y="20" width="1" height="1" fill="#2E222F" />
<rect x="72" y="20" width="1" height="1" fill="#FFFFFF" />
<rect x="73" y="20" width="1" height="1" fill="#FFFFFF" />
<rect x="74" y="20" width="1" height="1" fill="#FFFFFF" />
<rect x="75" y="20" width="1" height="1" fill="#FFFFFF" />
<rect x="76" y="20" width="1" height="1" fill="#FFFFFF" />
<rect x="77" y="20" width="1" height="1" fill="#FFFFFF" />
<rect x="78" y="20" width="1" height="1" fill="#FFFFFF" />
<rect x="79" y="20" width="1" height="1" fill="#FFFFFF" />
<rect x="80" y="20" width="1" height="1" fill="#FFFFFF" />
<rect x="81" y="20" width="1" height="1" fill="#FFFFFF" />
<rect x="82" y="20" width="1" height="1" fill="#FFFFFF" />
<rect x="83" y="20" width="1" height="1" fill="#FFFFFF" />
<rect x="84" y="20" width="1" height="1" fill="#FFFFFF" />
<rect x="85" y="20" width="1" height="1" fill="#FFFFFF" />
<rect x="86" y="20" width="1" height="1" fill="#FFFFFF" />
<rect x="87" y="20" width="1" height="1" fill="#E7ECEE" />
<rect x="88" y="20" width="1" height="1" fill="#2E222F" />
<rect x="103" y="20" width="1" height="1" fill="#2E222F" />
<rect x="104" y="20" width="1" height="1" fill="#FFFFFF" />
<rect x="105" y="20" width="1" height="1" fill="#FFFFFF" />
<rect x="106" y="20" width="1" height="1" fill="#FFFFFF" />
<rect x="107" y="20" width="1" height="1" fill="#FFFFFF" />
<rect x="108" y="20" width="1" height="1" fill="#FFFFFF" />
<rect x="109" y="20" width="1" height="1" fill="#FFFFFF" />
<rect x="110" y="20" width="1" height="1" fill="#FFFFFF" />
<rect x="111" y="20" width="1" height="1" fill="#FFFFFF" />
<rect x="112" y="20" width="1" height="1" fill="#FFFFFF" />
<rect x="113" y="20" width="1" height="1" fill="#FFFFFF" />
<rect x="114" y="20" width="1" height="1" fill="#FFFFFF" />
<rect x="115" y="20" width="1" height="1" fill="#FFFFFF" />
<rect x="116" y="20" width="1" height="1" fill="#FFFFFF" />
<rect x="117" y="20" width="1" height="1" fill="#FFFFFF" />
<rect x="118" y="20" width="1" height="1" fill="#FFFFFF" />
<rect x="119" y="20" width="1" height="1" fill="#E7ECEE" />
<rect x="120" y="20" width="1" height="1" fill="#2E222F" />
<rect x="7" y="21" width="1" height="1" fill="#2E222F" />
<rect x="8" y="21" width="1" height="1" fill="#FFFFFF" />
<rect x="9" y="21" width="1" height="1" fill="#FFFFFF" />
<rect x="10" y="21" width="1" height="1" fill="#FFFFFF" />
<rect x="11" y="21" width="1" height="1" fill="#FFFFFF" />
<rect x="12" y="21" width="1" height="1" fill="#FFFFFF" />
<rect x="13" y="21" width="1" height="1" fill="#FFFFFF" />
<rect x="14" y="21" width="1" height="1" fill="#FFFFFF" />
<rect x="15" y="21" width="1" height="1" fill="#FFFFFF" />
<rect x="16" y="21" width="1" height="1" fill="#FFFFFF" />
<rect x="17" y="21" width="1" height="1" fill="#FFFFFF" />
<rect x="18" y="21" width="1" height="1" fill="#FFFFFF" />
<rect x="19" y="21" width="1" height="1" fill="#FFFFFF" />
<rect x="20" y="21" width="1" height="1" fill="#FFFFFF" />
<rect x="21" y="21" width="1" height="1" fill="#FFFFFF" />
<rect x="22" y="21" width="1" height="1" fill="#FFFFFF" />
<rect x="23" y="21" width="1" height="1" fill="#E7ECEE" />
<rect x="24" y="21" width="1" height="1" fill="#2E222F" />
<rect x="39" y="21" width="1" height="1" fill="#2E222F" />
<rect x="40" y="21" width="1" height="1" fill="#FFFFFF" />
<rect x="41" y="21" width="1" height="1" fill="#FFFFFF" />
<rect x="42" y="21" width="1" height="1" fill="#FFFFFF" />
<rect x="43" y="21" width="1" height="1" fill="#FFFFFF" />
<rect x="44" y="21" width="1" height="1" fill="#FFFFFF" />
<rect x="45" y="21" width="1" height="1" fill="#FFFFFF" />
<rect x="46" y="21" width="1" height="1" fill="#FFFFFF" />
<rect x="47" y="21" width="1" height="1" fill="#FFFFFF" />
<rect x="48" y="21" width="1" height="1" fill="#FFFFFF" />
<rect x="49" y="21" width="1" height="1" fill="#FFFFFF" />
<rect x="50" y="21" width="1" height="1" fill="#FFFFFF" />
<rect x="51" y="21" width="1" height="1" fill="#FFFFFF" />
<rect x="52" y="21" width="1" height="1" fill="#FFFFFF" />
<rect x="53" y="21" width="1" height="1" fill="#FFFFFF" />
<rect x="54" y="21" width="1" height="1" fill="#FFFFFF" />
<rect x="55" y="21" width="1" height="1" fill="#E7ECEE" />
<rect x="56" y="21" width="1" height="1" fill="#2E222F" />
<rect x="71" y="21" width="1" height="1" fill="#2E222F" />
<rect x="72" y="21" width="1" height="1" fill="#FFFFFF" />
<rect x="73" y="21" width="1" height="1" fill="#FFFFFF" />
<rect x="74" y="21" width="1" height="1" fill="#FFFFFF" />
<rect x="75" y="21" width="1" height="1" fill="#FFFFFF" />
<rect x="76" y="21" width="1" height="1" fill="#FFFFFF" />
<rect x="77" y="21" width="1" height="1" fill="#FFFFFF" />
<rect x="78" y="21" width="1" height="1" fill="#FFFFFF" />
<rect x="79" y="21" width="1" height="1" fill="#FFFFFF" />
<rect x="80" y="21" width="1" height="1" fill="#FFFFFF" />
<rect x="81" y="21" width="1" height="1" fill="#FFFFFF" />
<rect x="82" y="21" width="1" height="1" fill="#FFFFFF" />
<rect x="83" y="21" width="1" height="1" fill="#FFFFFF" />
<rect x="84" y="21" width="1" height="1" fill="#FFFFFF" />
<rect x="85" y="21" width="1" height="1" fill="#FFFFFF" />
<rect x="86" y="21" width="1" height="1" fill="#FFFFFF" />
<rect x="87" y="21" width="1" height="1" fill="#E7ECEE" />
<rect x="88" y="21" width="1" height="1" fill="#2E222F" />
<rect x="103" y="21" width="1" height="1" fill="#2E222F" />
<rect x="104" y="21" width="1" height="1" fill="#FFFFFF" />
<rect x="105" y="21" width="1" height="1" fill="#FFFFFF" />
<rect x="106" y="21" width="1" height="1" fill="#FFFFFF" />
<rect x="107" y="21" width="1" height="1" fill="#FFFFFF" />
<rect x="108" y="21" width="1" height="1" fill="#FFFFFF" />
<rect x="109" y="21" width="1" height="1" fill="#FFFFFF" />
<rect x="110" y="21" width="1" height="1" fill="#FFFFFF" />
<rect x="111" y="21" width="1" height="1" fill="#FFFFFF" />
<rect x="112" y="21" width="1" height="1" fill="#FFFFFF" />
<rect x="113" y="21" width="1" height="1" fill="#FFFFFF" />
<rect x="114" y="21" width="1" height="1" fill="#FFFFFF" />
<rect x="115" y="21" width="1" height="1" fill="#FFFFFF" />
<rect x="116" y="21" width="1" height="1" fill="#FFFFFF" />
<rect x="117" y="21" width="1" height="1" fill="#FFFFFF" />
<rect x="118" y="21" width="1" height="1" fill="#FFFFFF" />
<rect x="119" y="21" width="1" height="1" fill="#E7ECEE" />
<rect x="120" y="21" width="1" height="1" fill="#2E222F" />
<rect x="7" y="22" width="1" height="1" fill="#2E222F" />
<rect x="8" y="22" width="1" height="1" fill="#E7ECEE" />
<rect x="9" y="22" width="1" height="1" fill="#FFFFFF" />
<rect x="10" y="22" width="1" height="1" fill="#FFFFFF" />
<rect x="11" y="22" width="1" height="1" fill="#FFFFFF" />
<rect x="12" y="22" width="1" height="1" fill="#FFFFFF" />
<rect x="13" y="22" width="1" height="1" fill="#FFFFFF" />
<rect x="14" y="22" width="1" height="1" fill="#FFFFFF" />
<rect x="15" y="22" width="1" height="1" fill="#FFFFFF" />
<rect x="16" y="22" width="1" height="1" fill="#FFFFFF" />
<rect x="17" y="22" width="1" height="1" fill="#FFFFFF" />
<rect x="18" y="22" width="1" height="1" fill="#FFFFFF" />
<rect x="19" y="22" width="1" height="1" fill="#FFFFFF" />
<rect x="20" y="22" width="1" height="1" fill="#FFFFFF" />
<rect x="21" y="22" width="1" height="1" fill="#FFFFFF" />
<rect x="22" y="22" width="1" height="1" fill="#FFFFFF" />
<rect x="23" y="22" width="1" height="1" fill="#E7ECEE" />
<rect x="24" y="22" width="1" height="1" fill="#2E222F" />
<rect x="39" y="22" width="1" height="1" fill="#2E222F" />
<rect x="40" y="22" width="1" height="1" fill="#E7ECEE" />
<rect x="41" y="22" width="1" height="1" fill="#FFFFFF" />
<rect x="42" y="22" width="1" height="1" fill="#FFFFFF" />
<rect x="43" y="22" width="1" height="1" fill="#FFFFFF" />
<rect x="44" y="22" width="1" height="1" fill="#FFFFFF" />
<rect x="45" y="22" width="1" height="1" fill="#FFFFFF" />
<rect x="46" y="22" width="1" height="1" fill="#FFFFFF" />
<rect x="47" y="22" width="1" height="1" fill="#FFFFFF" />
<rect x="48" y="22" width="1" height="1" fill="#FFFFFF" />
<rect x="49" y="22" width="1" height="1" fill="#FFFFFF" />
<rect x="50" y="22" width="1" height="1" fill="#FFFFFF" />
<rect x="51" y="22" width="1" height="1" fill="#FFFFFF" />
<rect x="52" y="22" width="1" height="1" fill="#FFFFFF" />
<rect x="53" y="22" width="1" height="1" fill="#FFFFFF" />
<rect x="54" y="22" width="1" height="1" fill="#FFFFFF" />
<rect x="55" y="22" width="1" height="1" fill="#E7ECEE" />
<rect x="56" y="22" width="1" height="1" fill="#2E222F" />
<rect x="71" y="22" width="1" height="1" fill="#2E222F" />
<rect x="72" y="22" width="1" height="1" fill="#E7ECEE" />
<rect x="73" y="22" width="1" height="1" fill="#FFFFFF" />
<rect x="74" y="22" width="1" height="1" fill="#FFFFFF" />
<rect x="75" y="22" width="1" height="1" fill="#FFFFFF" />
<rect x="76" y="22" width="1" height="1" fill="#FFFFFF" />
<rect x="77" y="22" width="1" height="1" fill="#FFFFFF" />
<rect x="78" y="22" width="1" height="1" fill="#FFFFFF" />
<rect x="79" y="22" width="1" height="1" fill="#FFFFFF" />
<rect x="80" y="22" width="1" height="1" fill="#FFFFFF" />
<rect x="81" y="22" width="1" height="1" fill="#FFFFFF" />
<rect x="82" y="22" width="1" height="1" fill="#FFFFFF" />
<rect x="83" y="22" width="1" height="1" fill="#FFFFFF" />
<rect x="84" y="22" width="1" height="1" fill="#FFFFFF" />
<rect x="85" y="22" width="1" height="1" fill="#FFFFFF" />
<rect x="86" y="22" width="1" height="1" fill="#FFFFFF" />
<rect x="87" y="22" width="1" height="1" fill="#E7ECEE" />
<rect x="88" y="22" width="1" height="1" fill="#2E222F" />
<rect x="103" y="22" width="1" height="1" fill="#2E222F" />
<rect x="104" y="22" width="1" height="1" fill="#E7ECEE" />
<rect x="105" y="22" width="1" height="1" fill="#FFFFFF" />
<rect x="106" y="22" width="1" height="1" fill="#FFFFFF" />
<rect x="107" y="22" width="1" height="1" fill="#FFFFFF" />
<rect x="108" y="22" width="1" height="1" fill="#FFFFFF" />
<rect x="109" y="22" width="1" height="1" fill="#FFFFFF" />
<rect x="110" y="22" width="1" height="1" fill="#FFFFFF" />
<rect x="111" y="22" width="1" height="1" fill="#FFFFFF" />
<rect x="112" y="22" width="1" height="1" fill="#FFFFFF" />
<rect x="113" y="22" width="1" height="1" fill="#FFFFFF" />
<rect x="114" y="22" width="1" height="1" fill="#FFFFFF" />
<rect x="115" y="22" width="1" height="1" fill="#FFFFFF" />
<rect x="116" y="22" width="1" height="1" fill="#FFFFFF" />
<rect x="117" y="22" width="1" height="1" fill="#FFFFFF" />
<rect x="118" y="22" width="1" height="1" fill="#FFFFFF" />
<rect x="119" y="22" width="1" height="1" fill="#E7ECEE" />
<rect x="120" y="22" width="1" height="1" fill="#2E222F" />
<rect x="8" y="23" width="1" height="1" fill="#2E222F" />
<rect x="9" y="23" width="1" height="1" fill="#FFFFFF" />
<rect x="10" y="23" width="1" height="1" fill="#FFFFFF" />
<rect x="11" y="23" width="1" height="1" fill="#FFFFFF" />
<rect x="12" y="23" width="1" height="1" fill="#FFFFFF" />
<rect x="13" y="23" width="1" height="1" fill="#FFFFFF" />
<rect x="14" y="23" width="1" height="1" fill="#FFFFFF" />
<rect x="15" y="23" width="1" height="1" fill="#FFFFFF" />
<rect x="16" y="23" width="1" height="1" fill="#FFFFFF" />
<rect x="17" y="23" width="1" height="1" fill="#FFFFFF" />
<rect x="18" y="23" width="1" height="1" fill="#FFFFFF" />
<rect x="19" y="23" width="1" height="1" fill="#FFFFFF" />
<rect x="20" y="23" width="1" height="1" fill="#FFFFFF" />
<rect x="21" y="23" width="1" height="1" fill="#FFFFFF" />
<rect x="22" y="23" width="1" height="1" fill="#E7ECEE" />
<rect x="23" y="23" width="1" height="1" fill="#2E222F" />
<rect x="40" y="23" width="1" height="1" fill="#2E222F" />
<rect x="41" y="23" width="1" height="1" fill="#FFFFFF" />
<rect x="42" y="23" width="1" height="1" fill="#FFFFFF" />
<rect x="43" y="23" width="1" height="1" fill="#FFFFFF" />
<rect x="44" y="23" width="1" height="1" fill="#FFFFFF" />
<rect x="45" y="23" width="1" height="1" fill="#FFFFFF" />
<rect x="46" y="23" width="1" height="1" fill="#FFFFFF" />
<rect x="47" y="23" width="1" height="1" fill="#FFFFFF" />
<rect x="48" y="23" width="1" height="1" fill="#FFFFFF" />
<rect x="49" y="23" width="1" height="1" fill="#FFFFFF" />
<rect x="50" y="23" width="1" height="1" fill="#FFFFFF" />
<rect x="51" y="23" width="1" height="1" fill="#FFFFFF" />
<rect x="52" y="23" width="1" height="1" fill="#FFFFFF" />
<rect x="53" y="23" width="1" height="1" fill="#FFFFFF" />
<rect x="54" y="23" width="1" height="1" fill="#E7ECEE" />
<rect x="55" y="23" width="1" height="1" fill="#2E222F" />
<rect x="72" y="23" width="1" height="1" fill="#2E222F" />
<rect x="73" y="23" width="1" height="1" fill="#FFFFFF" />
<rect x="74" y="23" width="1" height="1" fill="#FFFFFF" />
<rect x="75" y="23" width="1" height="1" fill="#FFFFFF" />
<rect x="76" y="23" width="1" height="1" fill="#FFFFFF" />
<rect x="77" y="23" width="1" height="1" fill="#FFFFFF" />
<rect x="78" y="23" width="1" height="1" fill="#FFFFFF" />
<rect x="79" y="23" width="1" height="1" fill="#FFFFFF" />
<rect x="80" y="23" width="1" height="1" fill="#FFFFFF" />
<rect x="81" y="23" width="1" height="1" fill="#FFFFFF" />
<rect x="82" y="23" width="1" height="1" fill="#FFFFFF" />
<rect x="83" y="23" width="1" height="1" fill="#FFFFFF" />
<rect x="84" y="23" width="1" height="1" fill="#FFFFFF" />
<rect x="85" y="23" width="1" height="1" fill="#FFFFFF" />
<rect x="86" y="23" width="1" height="1" fill="#E7ECEE" />
<rect x="87" y="23" width="1" height="1" fill="#2E222F" />
<rect x="104" y="23" width="1" height="1" fill="#2E222F" />
<rect x="105" y="23" width="1" height="1" fill="#FFFFFF" />
<rect x="106" y="23" width="1" height="1" fill="#FFFFFF" />
<rect x="107" y="23" width="1" height="1" fill="#FFFFFF" />
<rect x="108" y="23" width="1" height="1" fill="#FFFFFF" />
<rect x="109" y="23" width="1" height="1" fill="#FFFFFF" />
<rect x="110" y="23" width="1" height="1" fill="#FFFFFF" />
<rect x="111" y="23" width="1" height="1" fill="#FFFFFF" />
<rect x="112" y="23" width="1" height="1" fill="#FFFFFF" />
<rect x="113" y="23" width="1" height="1" fill="#FFFFFF" />
<rect x="114" y="23" width="1" height="1" fill="#FFFFFF" />
<rect x="115" y="23" width="1" height="1" fill="#FFFFFF" />
<rect x="116" y="23" width="1" height="1" fill="#FFFFFF" />
<rect x="117" y="23" width="1" height="1" fill="#FFFFFF" />
<rect x="118" y="23" width="1" height="1" fill="#E7ECEE" />
<rect x="119" y="23" width="1" height="1" fill="#2E222F" />
<rect x="8" y="24" width="1" height="1" fill="#2E222F" />
<rect x="9" y="24" width="1" height="1" fill="#E7ECEE" />
<rect x="10" y="24" width="1" height="1" fill="#E7ECEE" />
<rect x="11" y="24" width="1" height="1" fill="#E7ECEE" />
<rect x="12" y="24" width="1" height="1" fill="#E7ECEE" />
<rect x="13" y="24" width="1" height="1" fill="#E7ECEE" />
<rect x="14" y="24" width="1" height="1" fill="#E7ECEE" />
<rect x="15" y="24" width="1" height="1" fill="#E7ECEE" />
<rect x="16" y="24" width="1" height="1" fill="#E7ECEE" />
<rect x="17" y="24" width="1" height="1" fill="#E7ECEE" />
<rect x="18" y="24" width="1" height="1" fill="#E7ECEE" />
<rect x="19" y="24" width="1" height="1" fill="#E7ECEE" />
<rect x="20" y="24" width="1" height="1" fill="#E7ECEE" />
<rect x="21" y="24" width="1" height="1" fill="#E7ECEE" />
<rect x="22" y="24" width="1" height="1" fill="#2E222F" />
<rect x="23" y="24" width="1" height="1" fill="#2E222F" />
<rect x="40" y="24" width="1" height="1" fill="#2E222F" />
<rect x="41" y="24" width="1" height="1" fill="#E7ECEE" />
<rect x="42" y="24" width="1" height="1" fill="#E7ECEE" />
<rect x="43" y="24" width="1" height="1" fill="#E7ECEE" />
<rect x="44" y="24" width="1" height="1" fill="#E7ECEE" />
<rect x="45" y="24" width="1" height="1" fill="#E7ECEE" />
<rect x="46" y="24" width="1" height="1" fill="#E7ECEE" />
<rect x="47" y="24" width="1" height="1" fill="#E7ECEE" />
<rect x="48" y="24" width="1" height="1" fill="#E7ECEE" />
<rect x="49" y="24" width="1" height="1" fill="#E7ECEE" />
<rect x="50" y="24" width="1" height="1" fill="#E7ECEE" />
<rect x="51" y="24" width="1" height="1" fill="#E7ECEE" />
<rect x="52" y="24" width="1" height="1" fill="#E7ECEE" />
<rect x="53" y="24" width="1" height="1" fill="#E7ECEE" />
<rect x="54" y="24" width="1" height="1" fill="#2E222F" />
<rect x="55" y="24" width="1" height="1" fill="#2E222F" />
<rect x="72" y="24" width="1" height="1" fill="#2E222F" />
<rect x="73" y="24" width="1" height="1" fill="#E7ECEE" />
<rect x="74" y="24" width="1" height="1" fill="#E7ECEE" />
<rect x="75" y="24" width="1" height="1" fill="#E7ECEE" />
<rect x="76" y="24" width="1" height="1" fill="#E7ECEE" />
<rect x="77" y="24" width="1" height="1" fill="#E7ECEE" />
<rect x="78" y="24" width="1" height="1" fill="#E7ECEE" />
<rect x="79" y="24" width="1" height="1" fill="#E7ECEE" />
<rect x="80" y="24" width="1" height="1" fill="#E7ECEE" />
<rect x="81" y="24" width="1" height="1" fill="#E7ECEE" />
<rect x="82" y="24" width="1" height="1" fill="#E7ECEE" />
<rect x="83" y="24" width="1" height="1" fill="#E7ECEE" />
<rect x="84" y="24" width="1" height="1" fill="#E7ECEE" />
<rect x="85" y="24" width="1" height="1" fill="#E7ECEE" />
<rect x="86" y="24" width="1" height="1" fill="#2E222F" />
<rect x="87" y="24" width="1" height="1" fill="#2E222F" />
<rect x="104" y="24" width="1" height="1" fill="#2E222F" />
<rect x="105" y="24" width="1" height="1" fill="#E7ECEE" />
<rect x="106" y="24" width="1" height="1" fill="#E7ECEE" />
<rect x="107" y="24" width="1" height="1" fill="#E7ECEE" />
<rect x="108" y="24" width="1" height="1" fill="#E7ECEE" />
<rect x="109" y="24" width="1" height="1" fill="#E7ECEE" />
<rect x="110" y="24" width="1" height="1" fill="#E7ECEE" />
<rect x="111" y="24" width="1" height="1" fill="#E7ECEE" />
<rect x="112" y="24" width="1" height="1" fill="#E7ECEE" />
<rect x="113" y="24" width="1" height="1" fill="#E7ECEE" />
<rect x="114" y="24" width="1" height="1" fill="#E7ECEE" />
<rect x="115" y="24" width="1" height="1" fill="#E7ECEE" />
<rect x="116" y="24" width="1" height="1" fill="#E7ECEE" />
<rect x="117" y="24" width="1" height="1" fill="#E7ECEE" />
<rect x="118" y="24" width="1" height="1" fill="#2E222F" />
<rect x="119" y="24" width="1" height="1" fill="#2E222F" />
<rect x="9" y="25" width="1" height="1" fill="#2E222F" />
<rect x="10" y="25" width="1" height="1" fill="#2E222F" />
<rect x="11" y="25" width="1" height="1" fill="#2E222F" />
<rect x="12" y="25" width="1" height="1" fill="#2E222F" />
<rect x="13" y="25" width="1" height="1" fill="#2E222F" />
<rect x="14" y="25" width="1" height="1" fill="#2E222F" />
<rect x="15" y="25" width="1" height="1" fill="#2E222F" />
<rect x="16" y="25" width="1" height="1" fill="#2E222F" />
<rect x="17" y="25" width="1" height="1" fill="#2E222F" />
<rect x="18" y="25" width="1" height="1" fill="#2E222F" />
<rect x="19" y="25" width="1" height="1" fill="#2E222F" />
<rect x="20" y="25" width="1" height="1" fill="#2E222F" />
<rect x="21" y="25" width="1" height="1" fill="#2E222F" />
<rect x="22" y="25" width="1" height="1" fill="#2E222F" />
<rect x="41" y="25" width="1" height="1" fill="#2E222F" />
<rect x="42" y="25" width="1" height="1" fill="#2E222F" />
<rect x="43" y="25" width="1" height="1" fill="#2E222F" />
<rect x="44" y="25" width="1" height="1" fill="#2E222F" />
<rect x="45" y="25" width="1" height="1" fill="#2E222F" />
<rect x="46" y="25" width="1" height="1" fill="#2E222F" />
<rect x="47" y="25" width="1" height="1" fill="#2E222F" />
<rect x="48" y="25" width="1" height="1" fill="#2E222F" />
<rect x="49" y="25" width="1" height="1" fill="#2E222F" />
<rect x="50" y="25" width="1" height="1" fill="#2E222F" />
<rect x="51" y="25" width="1" height="1" fill="#2E222F" />
<rect x="52" y="25" width="1" height="1" fill="#2E222F" />
<rect x="53" y="25" width="1" height="1" fill="#2E222F" />
<rect x="54" y="25" width="1" height="1" fill="#2E222F" />
<rect x="73" y="25" width="1" height="1" fill="#2E222F" />
<rect x="74" y="25" width="1" height="1" fill="#2E222F" />
<rect x="75" y="25" width="1" height="1" fill="#2E222F" />
<rect x="76" y="25" width="1" height="1" fill="#2E222F" />
<rect x="77" y="25" width="1" height="1" fill="#2E222F" />
<rect x="78" y="25" width="1" height="1" fill="#2E222F" />
<rect x="79" y="25" width="1" height="1" fill="#2E222F" />
<rect x="80" y="25" width="1" height="1" fill="#2E222F" />
<rect x="81" y="25" width="1" height="1" fill="#2E222F" />
<rect x="82" y="25" width="1" height="1" fill="#2E222F" />
<rect x="83" y="25" width="1" height="1" fill="#2E222F" />
<rect x="84" y="25" width="1" height="1" fill="#2E222F" />
<rect x="85" y="25" width="1" height="1" fill="#2E222F" />
<rect x="86" y="25" width="1" height="1" fill="#2E222F" />
<rect x="105" y="25" width="1" height="1" fill="#2E222F" />
<rect x="106" y="25" width="1" height="1" fill="#2E222F" />
<rect x="107" y="25" width="1" height="1" fill="#2E222F" />
<rect x="108" y="25" width="1" height="1" fill="#2E222F" />
<rect x="109" y="25" width="1" height="1" fill="#2E222F" />
<rect x="110" y="25" width="1" height="1" fill="#2E222F" />
<rect x="111" y="25" width="1" height="1" fill="#2E222F" />
<rect x="112" y="25" width="1" height="1" fill="#2E222F" />
<rect x="113" y="25" width="1" height="1" fill="#2E222F" />
<rect x="114" y="25" width="1" height="1" fill="#2E222F" />
<rect x="115" y="25" width="1" height="1" fill="#2E222F" />
<rect x="116" y="25" width="1" height="1" fill="#2E222F" />
<rect x="117" y="25" width="1" height="1" fill="#2E222F" />
<rect x="118" y="25" width="1" height="1" fill="#2E222F" />
<rect x="10" y="26" width="1" height="1" fill="#2E222F" />
<rect x="13" y="26" width="1" height="1" fill="#2E222F" />
<rect x="19" y="26" width="1" height="1" fill="#2E222F" />
<rect x="22" y="26" width="1" height="1" fill="#2E222F" />
<rect x="42" y="26" width="1" height="1" fill="#2E222F" />
<rect x="45" y="26" width="1" height="1" fill="#2E222F" />
<rect x="51" y="26" width="1" height="1" fill="#2E222F" />
<rect x="54" y="26" width="1" height="1" fill="#2E222F" />
<rect x="74" y="26" width="1" height="1" fill="#2E222F" />
<rect x="77" y="26" width="1" height="1" fill="#2E222F" />
<rect x="83" y="26" width="1" height="1" fill="#2E222F" />
<rect x="86" y="26" width="1" height="1" fill="#2E222F" />
<rect x="106" y="26" width="1" height="1" fill="#2E222F" />
<rect x="109" y="26" width="1" height="1" fill="#2E222F" />
<rect x="115" y="26" width="1" height="1" fill="#2E222F" />
<rect x="118" y="26" width="1" height="1" fill="#2E222F" />
<rect x="10" y="27" width="1" height="1" fill="#2E222F" />
<rect x="13" y="27" width="1" height="1" fill="#2E222F" />
<rect x="19" y="27" width="1" height="1" fill="#2E222F" />
<rect x="22" y="27" width="1" height="1" fill="#2E222F" />
<rect x="42" y="27" width="1" height="1" fill="#2E222F" />
<rect x="45" y="27" width="1" height="1" fill="#2E222F" />
<rect x="51" y="27" width="1" height="1" fill="#2E222F" />
<rect x="54" y="27" width="1" height="1" fill="#2E222F" />
<rect x="74" y="27" width="1" height="1" fill="#2E222F" />
<rect x="76" y="27" width="1" height="1" fill="#2E222F" />
<rect x="82" y="27" width="1" height="1" fill="#2E222F" />
<rect x="86" y="27" width="1" height="1" fill="#2E222F" />
<rect x="105" y="27" width="1" height="1" fill="#2E222F" />
<rect x="109" y="27" width="1" height="1" fill="#2E222F" />
<rect x="115" y="27" width="1" height="1" fill="#2E222F" />
<rect x="117" y="27" width="1" height="1" fill="#2E222F" />
</svg>